<svg xmlns="http://www.w3.org/2000/svg" xmlns:xlink="http://www.w3.org/1999/xlink" viewBox="0 0 1959.49 1141.51"><defs><style>.cls-1,.cls-4{fill:none;}.cls-2{clip-path:url(#clip-path);}.cls-3{fill:#f7a192;}.cls-4{stroke:#fff;stroke-miterlimit:10;stroke-width:9px;}.cls-5{fill:#fff;}</style><clipPath id="clip-path" transform="translate(163.17 157.8)"><rect class="cls-1" width="1296" height="2160"/></clipPath></defs><title>Ресурс 2</title><g id="Слой_2" data-name="Слой 2"><g id="Слой_1-2" data-name="Слой 1"><g class="cls-2"><path class="cls-3" d="M-163.17-21.17C-59.66-125,234.45-171.89,361.32-71.2c60.54,48-175.86,131.73-244,347.73C83.72,383,167.16,526.6,178.94,637.4,192.76,767.45,143.38,896.12-7.87,980.3c-70.35,39.16,17.69-270.52-57.25-324.78-66.49-48.16-107.42-154.92-88-238.21,8.2-35.13,31.4-77.87,10.73-117.69m249.9,356.55c9.23-4.92,10.47-25.81.41-34.42-3.55-3-9.7-5.57-15.53-3.52-9.12,3.21-10.25,15.1-10.32,16a21.81,21.81,0,0,0,13.55,21.6C97.61,656.54,103,658.6,107.53,656.17Zm-2.31,42.71c2.81-1.28,3.49-6.17.62-8a5.65,5.65,0,0,0-4.57-.59,5.07,5.07,0,0,0-3.3,3.87c-.35,2.15,1.24,4.21,3.71,4.84A5.49,5.49,0,0,0,105.22,698.88Z" transform="translate(163.17 157.8)"/><path class="cls-3" d="M1182.79,888.1C1126.73,828.19,1107,715.62,1142,637.55c14.78-32.93,45.73-70.47,33.07-113.49-8.48-28.8-27.49-29.38-46.34-62.9C1095.34,401.73,1115.4,333,1119,321.4c19.42-62.57,67.6-96.2,97.12-116.19,121.48-82.26,371.72-142.46,477-19.51,75,87.59,37.62,222.83-1.83,365.6-34.83,126.08-90.6,327.88-255.18,381.77C1359.52,958.14,1246,955.61,1182.79,888.1Zm-26.69-555c1.69-.82,5.5-2.65,6.13-6.13.57-3.13-1.77-5.84-3.29-7.6a19.67,19.67,0,0,0-14.82-6.8c-2,0-10.18.07-12.88,5.59-2.48,5.06,1.49,10.85,1.68,11.11C1137.91,336.32,1149.24,336.41,1156.1,333.11Zm7,30.25c1.86-1.6,1-5,.18-6.56-.32-.67-1.91-4-4.89-3.89a5,5,0,0,0-4.42,3.61c-.85,2.89,1.46,5.69,3.67,6.8C1157.82,363.41,1161.16,365,1163.1,363.36Zm448.32,273.47c10-3.08,15.21-23.35,7-33.71-2.9-3.66-8.46-7.32-14.57-6.41-9.56,1.42-13,12.88-13.19,13.7a21.78,21.78,0,0,0,9.17,23.78C1601.61,635.31,1606.49,638.35,1611.42,636.83ZM1601,678.32c3-.73,4.61-5.4,2.15-7.77a5.63,5.63,0,0,0-4.37-1.45,5.06,5.06,0,0,0-4,3.17c-.76,2.05.41,4.37,2.72,5.46A5.51,5.51,0,0,0,1601,678.32Z" transform="translate(163.17 157.8)"/><path class="cls-3" d="M220.21,832.26c0-.28.11-4.19,2.32-5,1.41-.55,3,.42,3.89,1.5,2.61,3.07,2.62,9.94.41,11.37-1.09.7-2.45-.09-3-.38C221.74,838.44,220.16,835.28,220.21,832.26Z" transform="translate(163.17 157.8)"/><path class="cls-3" d="M208.31,856.08c0-.18.4-2.78,2.64-3.5a4.21,4.21,0,0,1,3.73.73c2.37,1.85,1.89,6.4-.38,7.5a3.92,3.92,0,0,1-2.88,0A4.49,4.49,0,0,1,208.31,856.08Z" transform="translate(163.17 157.8)"/><path class="cls-3" d="M166.26,852.93c-5.26-9.17-8-25.57-.25-32.23,4.8-4.14,13.16-4.13,17.12-.38,3,2.84,1.2,5.68,3.89,12.1,3.73,8.87,9.19,8.25,9.63,14.11.48,6.5-5.59,15.88-12.55,18.14C174.73,867.71,168.24,856.38,166.26,852.93Z" transform="translate(163.17 157.8)"/><path class="cls-3" d="M1133,483.48c.77,1.6,1.68,5-.18,6.56s-5.27,0-5.45-.05c-2.21-1.11-4.53-3.9-3.68-6.79a5,5,0,0,1,4.42-3.61C1131.09,479.51,1132.68,482.81,1133,483.48Z" transform="translate(163.17 157.8)"/><path class="cls-3" d="M1137.05,512.64c2,4.91,4.48,15.22-.43,20.11-5.12,5.1-14,.09-14.47-.19-5.86-3.42-12-12-9.8-20.87,1.42-5.61,6.09-10.88,11.68-11C1131.94,500.43,1136.18,510.58,1137.05,512.64Z" transform="translate(163.17 157.8)"/><path class="cls-3" d="M1148.83,496.1c.5.8,1.09,2.47-.15,3.28s-3.5,0-3.62,0c-1.46-.55-3-1.94-2.41-3.39a3.3,3.3,0,0,1,2.94-1.82A3.86,3.86,0,0,1,1148.83,496.1Z" transform="translate(163.17 157.8)"/><path class="cls-4" d="M1786.5,71c18.34-76.51-12.56-147.46-63.78-170.25-41-18.24-91.78-4.27-122.8,18.3-53.24,38.75-29.34,89.21-85.21,132.94-10.13,7.93-64,47.79-116.76,26.18C1366.62,65.3,1375.89,27.74,1337.82,5c-3.74-2.23-36.69-21.31-68.85-9.78-34.91,12.52-51,54.7-41.81,87.4,7.28,25.76,29.17,41.62,30.57,42.61,23,16.22,42.34,10.42,53.13,26,7.86,11.37,7.1,28.22.23,39-16.84,26.35-75.86,24.56-116.17,3.87-24-12.31-26.51-23.7-49.73-44.87C1099.05,107.13,1014,65.49,963.06,92.33c-25,13.2-39.38,40.8-42,64.88C916,204.42,957.23,227.77,949,246.08,929,290.46,638.74,259.5,590.85,138,565.38,73.32,625.77,27.09,594.36-45.7c-25.12-58.22-90.3-90.11-140.71-107.86" transform="translate(163.17 157.8)"/><path class="cls-5" d="M1003.27,110.06c-9.45,0-11.75-4.53-16.95-2.9-5.76,1.82-10.59,9.83-8.91,16.13,2.26,8.5,15.24,9.85,19.18,10.26,10.51,1.09,25.82-2.29,27.49-10.7,1-5.23-3.3-11.89-8.53-13.77C1011.59,107.65,1010.11,110,1003.27,110.06Z" transform="translate(163.17 157.8)"/><path class="cls-5" d="M613.41,98.19c-2.31.35-5-2-5.46-4.69-.52-3,1.65-6.45,4.4-6.6,2-.11,3.74,1.52,4.45,3.12C618.19,93.15,616.32,97.74,613.41,98.19Z" transform="translate(163.17 157.8)"/><path class="cls-5" d="M1104.48,149.94c.23-1.72.4-5.26-1.81-7.62-1.26-1.36-3.79-1.85-8.79-2.77-6.24-1.16-6.84-.69-7.08-.42-1.59,1.72.39,7.3,4.11,10.1C1096.35,153.31,1103.83,150.22,1104.48,149.94Z" transform="translate(163.17 157.8)"/><path class="cls-5" d="M852.85,288.93a6.8,6.8,0,0,0-1-8.05c-3.34-3.08-9.55.27-10.56.84-2.16,1.22-6.17,4.28-5.51,6.59C836.88,291.92,849.54,294.1,852.85,288.93Z" transform="translate(163.17 157.8)"/><path class="cls-5" d="M793.72,236.63c4.53,4.21,15.09,8.27,22.42,8.34,11.82.1,9.68-10.24,9.25-12-.9-3.65-4.67-11.39-11.52-13.37C803.14,216.53,783.57,227.19,793.72,236.63Z" transform="translate(163.17 157.8)"/><path class="cls-5" d="M1071.2,72.67c1.16-4-2.91-8.6-6.61-10.58-4-2.13-10.84-3.05-13.48.76-2.21,3.21-.3,8.16,1.94,10.84,3.54,4.23,10.07,5.37,14.43,3A7.19,7.19,0,0,0,1071.2,72.67Z" transform="translate(163.17 157.8)"/><path class="cls-5" d="M642.34,134.75c1.65-5.68-4.11-12.15-9.34-15-5.61-3-15.32-4.32-19,1.07-3.13,4.54-.43,11.52,2.74,15.31,5,6,14.22,7.6,20.39,4.25C638.22,139.81,641.37,138.1,642.34,134.75Z" transform="translate(163.17 157.8)"/></g></g></g></svg>